<?xml version="1.0" encoding="UTF-8" standalone="no"?>
<!DOCTYPE svg PUBLIC "-//W3C//DTD SVG 1.1//EN"
 "http://www.w3.org/Graphics/SVG/1.1/DTD/svg11.dtd">
<!-- Generated by graphviz version 2.43.0 (0)
 -->
<!-- Title: calc_flow Pages: 1 -->
<svg width="565pt" height="596pt"
 viewBox="0.00 0.00 565.00 595.50" xmlns="http://www.w3.org/2000/svg" xmlns:xlink="http://www.w3.org/1999/xlink">
<g id="graph0" class="graph" transform="scale(1 1) rotate(0) translate(4 591.5)">
<title>calc_flow</title>
<!-- driver -->
<g id="node1" class="node">
<title>driver</title>
<path fill="#dbeafe" stroke="#2563eb" stroke-width="1.2" d="M21,-425C21,-425 151,-425 151,-425 157,-425 163,-431 163,-437 163,-437 163,-575 163,-575 163,-581 157,-587 151,-587 151,-587 21,-587 21,-587 15,-587 9,-581 9,-575 9,-575 9,-437 9,-437 9,-431 15,-425 21,-425"/>
<polygon fill="#2563eb" stroke="transparent" points="19,-564 19,-581 153,-581 153,-564 19,-564"/>
<text text-anchor="start" x="70" y="-571" font-family="system-ui, sans-serif" font-weight="bold" font-size="10.00" fill="white">Driver</text>
<text text-anchor="start" x="22" y="-552" font-family="system-ui, sans-serif" font-weight="bold" font-size="10.00">efficiency</text>
<text text-anchor="start" x="128" y="-551" font-family="system-ui, sans-serif" font-size="10.00">0.35</text>
<text text-anchor="start" x="22" y="-533" font-family="system-ui, sans-serif" font-weight="bold" font-size="10.00">energy</text>
<text text-anchor="start" x="114" y="-532" font-family="system-ui, sans-serif" font-size="10.00">14.3 MJ</text>
<text text-anchor="start" x="22" y="-514" font-family="system-ui, sans-serif" font-weight="bold" font-size="10.00">cost_per_joule</text>
<text text-anchor="start" x="144" y="-513" font-family="system-ui, sans-serif" font-size="10.00">γ</text>
<text text-anchor="start" x="22" y="-495" font-family="system-ui, sans-serif" font-weight="bold" font-size="10.00">lifetime_shots</text>
<text text-anchor="start" x="122" y="-494" font-family="system-ui, sans-serif" font-size="10.00">6×10⁹</text>
<text text-anchor="start" x="22" y="-476" font-family="system-ui, sans-serif" font-weight="bold" font-size="10.00">beam_energy_mj</text>
<text text-anchor="start" x="120" y="-475" font-family="system-ui, sans-serif" font-size="10.00">5.0 MJ</text>
<text text-anchor="start" x="22" y="-457" font-family="system-ui, sans-serif" font-weight="bold" font-size="10.00">num_chambers</text>
<text text-anchor="start" x="143" y="-456" font-family="system-ui, sans-serif" font-size="10.00">1</text>
<text text-anchor="start" x="22" y="-438" font-family="system-ui, sans-serif" font-weight="bold" font-size="10.00">pulse_rate_ref</text>
<text text-anchor="start" x="120" y="-437" font-family="system-ui, sans-serif" font-size="10.00">3.5 Hz</text>
</g>
<!-- calc_meier_drv -->
<g id="node5" class="node">
<title>calc_meier_drv</title>
<path fill="#ede9fe" stroke="#7c3aed" stroke-width="1.2" d="M375.5,-476.5C375.5,-476.5 321.5,-476.5 321.5,-476.5 315.5,-476.5 309.5,-470.5 309.5,-464.5 309.5,-464.5 309.5,-433.5 309.5,-433.5 309.5,-427.5 315.5,-421.5 321.5,-421.5 321.5,-421.5 375.5,-421.5 375.5,-421.5 381.5,-421.5 387.5,-427.5 387.5,-433.5 387.5,-433.5 387.5,-464.5 387.5,-464.5 387.5,-470.5 381.5,-476.5 375.5,-476.5"/>
<text text-anchor="start" x="324" y="-462" font-family="system-ui, sans-serif" font-weight="bold" font-size="10.00">Meier HIF</text>
<text text-anchor="start" x="320.5" y="-446" font-family="system-ui, sans-serif" font-weight="bold" font-size="10.00">Driver Cost</text>
<text text-anchor="start" x="339" y="-430.6" font-family="system-ui, sans-serif" font-size="8.00">Eq. 5</text>
</g>
<!-- driver&#45;&gt;calc_meier_drv -->
<g id="edge9" class="edge">
<title>driver&#45;&gt;calc_meier_drv</title>
<path fill="none" stroke="#7c3aed" d="M163.26,-510.53C194.99,-510.38 231.85,-507.52 264,-498 277.45,-494.02 291,-487.42 303.17,-480.34"/>
<polygon fill="#7c3aed" stroke="#7c3aed" points="304.65,-482.31 309.39,-476.61 302.13,-478.11 304.65,-482.31"/>
<text text-anchor="start" x="219" y="-518.6" font-family="Times,serif" font-size="8.00">beam, η,</text>
<text text-anchor="start" x="226" y="-509.6" font-family="Times,serif" font-size="8.00">Nₙ, ν</text>
</g>
<!-- calc_lcoe -->
<g id="node6" class="node">
<title>calc_lcoe</title>
<path fill="#ede9fe" stroke="#7c3aed" stroke-width="2" d="M380,-238.5C380,-238.5 317,-238.5 317,-238.5 311,-238.5 305,-232.5 305,-226.5 305,-226.5 305,-197.5 305,-197.5 305,-191.5 311,-185.5 317,-185.5 317,-185.5 380,-185.5 380,-185.5 386,-185.5 392,-191.5 392,-197.5 392,-197.5 392,-226.5 392,-226.5 392,-232.5 386,-238.5 380,-238.5"/>
<text text-anchor="start" x="328" y="-224" font-family="system-ui, sans-serif" font-weight="bold" font-size="10.00">IFE LCOE</text>
<text text-anchor="start" x="321.5" y="-208.6" font-family="system-ui, sans-serif" font-size="8.00">Hawker model</text>
<text text-anchor="start" x="316.5" y="-194.6" font-family="system-ui, sans-serif" font-size="8.00">15 intermediates</text>
</g>
<!-- driver&#45;&gt;calc_lcoe -->
<g id="edge1" class="edge">
<title>driver&#45;&gt;calc_lcoe</title>
<path fill="none" stroke="#2563eb" d="M163.32,-436.14C177.9,-423.47 193.23,-410.61 208,-399 231.84,-380.26 245.8,-384.26 264,-360 294.11,-319.86 272.02,-294.65 300,-253 302.13,-249.84 304.56,-246.77 307.18,-243.83"/>
<polygon fill="#2563eb" stroke="#2563eb" points="309.01,-245.46 312.05,-238.7 305.46,-242.09 309.01,-245.46"/>
<text text-anchor="start" x="217.5" y="-401.6" font-family="Times,serif" font-size="8.00">4 params</text>
</g>
<!-- calc_recirc -->
<g id="node7" class="node">
<title>calc_recirc</title>
<path fill="#ede9fe" stroke="#7c3aed" stroke-width="1.2" d="M385,-392.5C385,-392.5 312,-392.5 312,-392.5 306,-392.5 300,-386.5 300,-380.5 300,-380.5 300,-363.5 300,-363.5 300,-357.5 306,-351.5 312,-351.5 312,-351.5 385,-351.5 385,-351.5 391,-351.5 397,-357.5 397,-363.5 397,-363.5 397,-380.5 397,-380.5 397,-386.5 391,-392.5 385,-392.5"/>
<text text-anchor="start" x="315.5" y="-378" font-family="system-ui, sans-serif" font-weight="bold" font-size="10.00">Recirculating</text>
<text text-anchor="start" x="311.5" y="-362" font-family="system-ui, sans-serif" font-weight="bold" font-size="10.00">Power Fraction</text>
</g>
<!-- driver&#45;&gt;calc_recirc -->
<g id="edge6" class="edge">
<title>driver&#45;&gt;calc_recirc</title>
<path fill="none" stroke="#7c3aed" d="M163.05,-466.88C207.77,-443.88 262.86,-415.54 301.13,-395.85"/>
<polygon fill="#7c3aed" stroke="#7c3aed" points="302.5,-397.9 307.6,-392.52 300.26,-393.55 302.5,-397.9"/>
<text text-anchor="start" x="233.5" y="-445.6" font-family="Times,serif" font-size="8.00">η</text>
</g>
<!-- chamber -->
<g id="node2" class="node">
<title>chamber</title>
<path fill="#dbeafe" stroke="#2563eb" stroke-width="1.2" d="M24.5,-97.5C24.5,-97.5 147.5,-97.5 147.5,-97.5 153.5,-97.5 159.5,-103.5 159.5,-109.5 159.5,-109.5 159.5,-152.5 159.5,-152.5 159.5,-158.5 153.5,-164.5 147.5,-164.5 147.5,-164.5 24.5,-164.5 24.5,-164.5 18.5,-164.5 12.5,-158.5 12.5,-152.5 12.5,-152.5 12.5,-109.5 12.5,-109.5 12.5,-103.5 18.5,-97.5 24.5,-97.5"/>
<polygon fill="#2563eb" stroke="transparent" points="23,-141 23,-158 150,-158 150,-141 23,-141"/>
<text text-anchor="start" x="63.5" y="-148" font-family="system-ui, sans-serif" font-weight="bold" font-size="10.00" fill="white">Chamber</text>
<text text-anchor="start" x="26" y="-129" font-family="system-ui, sans-serif" font-weight="bold" font-size="10.00">blanket_energy_m</text>
<text text-anchor="start" x="125" y="-128" font-family="system-ui, sans-serif" font-size="10.00">1.15</text>
<text text-anchor="start" x="26" y="-110" font-family="system-ui, sans-serif" font-weight="bold" font-size="10.00">yield_cost_const</text>
<text text-anchor="start" x="125" y="-109" font-family="system-ui, sans-serif" font-size="10.00">$5M</text>
</g>
<!-- chamber&#45;&gt;calc_lcoe -->
<g id="edge2" class="edge">
<title>chamber&#45;&gt;calc_lcoe</title>
<path fill="none" stroke="#2563eb" d="M159.84,-119.94C192.88,-117.96 231.7,-120.04 264,-134 285.06,-143.1 283.3,-155.27 300,-171 303.41,-174.21 307.01,-177.5 310.65,-180.75"/>
<polygon fill="#2563eb" stroke="#2563eb" points="309.12,-182.67 315.99,-185.47 312.37,-179 309.12,-182.67"/>
<text text-anchor="start" x="217.5" y="-136.6" font-family="Times,serif" font-size="8.00">2 params</text>
</g>
<!-- plant -->
<g id="node3" class="node">
<title>plant</title>
<path fill="#dbeafe" stroke="#2563eb" stroke-width="1.2" d="M12,-195C12,-195 160,-195 160,-195 166,-195 172,-201 172,-207 172,-207 172,-383 172,-383 172,-389 166,-395 160,-395 160,-395 12,-395 12,-395 6,-395 0,-389 0,-383 0,-383 0,-207 0,-207 0,-201 6,-195 12,-195"/>
<polygon fill="#2563eb" stroke="transparent" points="10,-372 10,-389 162,-389 162,-372 10,-372"/>
<text text-anchor="start" x="72.5" y="-379" font-family="system-ui, sans-serif" font-weight="bold" font-size="10.00" fill="white">Plant</text>
<text text-anchor="start" x="13" y="-360" font-family="system-ui, sans-serif" font-weight="bold" font-size="10.00">availability</text>
<text text-anchor="start" x="137" y="-359" font-family="system-ui, sans-serif" font-size="10.00">0.90</text>
<text text-anchor="start" x="13" y="-341" font-family="system-ui, sans-serif" font-weight="bold" font-size="10.00">frequency</text>
<text text-anchor="start" x="129" y="-340" font-family="system-ui, sans-serif" font-size="10.00">3.5 Hz</text>
<text text-anchor="start" x="13" y="-322" font-family="system-ui, sans-serif" font-weight="bold" font-size="10.00">gain</text>
<text text-anchor="start" x="146" y="-321" font-family="system-ui, sans-serif" font-size="10.00">80</text>
<text text-anchor="start" x="13" y="-303" font-family="system-ui, sans-serif" font-weight="bold" font-size="10.00">thermal_eff</text>
<text text-anchor="start" x="137" y="-302" font-family="system-ui, sans-serif" font-size="10.00">0.43</text>
<text text-anchor="start" x="13" y="-284" font-family="system-ui, sans-serif" font-weight="bold" font-size="10.00">discount_rate</text>
<text text-anchor="start" x="137" y="-283" font-family="system-ui, sans-serif" font-size="10.00">0.08</text>
<text text-anchor="start" x="13" y="-265" font-family="system-ui, sans-serif" font-weight="bold" font-size="10.00">plant_cost_const</text>
<text text-anchor="start" x="104" y="-264" font-family="system-ui, sans-serif" font-size="10.00">$2000/kWe</text>
<text text-anchor="start" x="13" y="-246" font-family="system-ui, sans-serif" font-weight="bold" font-size="10.00">om_cost_const</text>
<text text-anchor="start" x="104" y="-245" font-family="system-ui, sans-serif" font-size="10.00">$65/kWe&#45;yr</text>
<text text-anchor="start" x="13" y="-227" font-family="system-ui, sans-serif" font-weight="bold" font-size="10.00">thermal_power</text>
<text text-anchor="start" x="113" y="-226" font-family="system-ui, sans-serif" font-size="10.00">2.054 GW</text>
<text text-anchor="start" x="13" y="-208" font-family="system-ui, sans-serif" font-weight="bold" font-size="10.00">net_electric</text>
<text text-anchor="start" x="125" y="-207" font-family="system-ui, sans-serif" font-size="10.00">1.0 GW</text>
</g>
<!-- plant&#45;&gt;calc_lcoe -->
<g id="edge3" class="edge">
<title>plant&#45;&gt;calc_lcoe</title>
<path fill="none" stroke="#2563eb" d="M172.3,-267.82C213.89,-254.57 262.46,-239.1 297.89,-227.81"/>
<polygon fill="#2563eb" stroke="#2563eb" points="298.87,-230.07 304.8,-225.61 297.38,-225.4 298.87,-230.07"/>
<text text-anchor="start" x="217.5" y="-258.6" font-family="Times,serif" font-size="8.00">7 params</text>
</g>
<!-- plant&#45;&gt;calc_recirc -->
<g id="edge7" class="edge">
<title>plant&#45;&gt;calc_recirc</title>
<path fill="none" stroke="#7c3aed" d="M172.3,-320.21C211.94,-331.93 257.92,-345.52 292.83,-355.84"/>
<polygon fill="#7c3aed" stroke="#7c3aed" points="292.25,-358.22 299.66,-357.86 293.64,-353.52 292.25,-358.22"/>
<text text-anchor="start" x="232.5" y="-349.6" font-family="Times,serif" font-size="8.00">G</text>
</g>
<!-- calc_meier_rx -->
<g id="node8" class="node">
<title>calc_meier_rx</title>
<path fill="#ede9fe" stroke="#7c3aed" stroke-width="1.2" d="M379.5,-322.5C379.5,-322.5 317.5,-322.5 317.5,-322.5 311.5,-322.5 305.5,-316.5 305.5,-310.5 305.5,-310.5 305.5,-279.5 305.5,-279.5 305.5,-273.5 311.5,-267.5 317.5,-267.5 317.5,-267.5 379.5,-267.5 379.5,-267.5 385.5,-267.5 391.5,-273.5 391.5,-279.5 391.5,-279.5 391.5,-310.5 391.5,-310.5 391.5,-316.5 385.5,-322.5 379.5,-322.5"/>
<text text-anchor="start" x="333.5" y="-308" font-family="system-ui, sans-serif" font-weight="bold" font-size="10.00">Meier</text>
<text text-anchor="start" x="316.5" y="-292" font-family="system-ui, sans-serif" font-weight="bold" font-size="10.00">Reactor Cost</text>
<text text-anchor="start" x="339" y="-276.6" font-family="system-ui, sans-serif" font-size="8.00">Eq. 3</text>
</g>
<!-- plant&#45;&gt;calc_meier_rx -->
<g id="edge11" class="edge">
<title>plant&#45;&gt;calc_meier_rx</title>
<path fill="none" stroke="#7c3aed" d="M172.08,-293.24C201.23,-292.85 234.04,-292.64 264,-293 275.06,-293.13 286.95,-293.36 298.18,-293.62"/>
<polygon fill="#7c3aed" stroke="#7c3aed" points="298.4,-296.08 305.45,-293.8 298.51,-291.18 298.4,-296.08"/>
<text text-anchor="start" x="230" y="-295.6" font-family="Times,serif" font-size="8.00">Pᵗₕ</text>
</g>
<!-- calc_meier_coe -->
<g id="node10" class="node">
<title>calc_meier_coe</title>
<path fill="#ede9fe" stroke="#7c3aed" stroke-width="1.2" d="M373.5,-43.5C373.5,-43.5 323.5,-43.5 323.5,-43.5 317.5,-43.5 311.5,-37.5 311.5,-31.5 311.5,-31.5 311.5,-16.5 311.5,-16.5 311.5,-10.5 317.5,-4.5 323.5,-4.5 323.5,-4.5 373.5,-4.5 373.5,-4.5 379.5,-4.5 385.5,-10.5 385.5,-16.5 385.5,-16.5 385.5,-31.5 385.5,-31.5 385.5,-37.5 379.5,-43.5 373.5,-43.5"/>
<text text-anchor="start" x="322.5" y="-29" font-family="system-ui, sans-serif" font-weight="bold" font-size="10.00">Meier COE</text>
<text text-anchor="start" x="339" y="-13.6" font-family="system-ui, sans-serif" font-size="8.00">Eq. 1</text>
</g>
<!-- plant&#45;&gt;calc_meier_coe -->
<g id="edge15" class="edge">
<title>plant&#45;&gt;calc_meier_coe</title>
<path fill="none" stroke="#7c3aed" d="M172.25,-209.75C183.93,-199.33 196.03,-189.15 208,-180 231.13,-162.31 243.39,-166.57 264,-146 285.74,-124.3 282.73,-112.41 300,-87 308.59,-74.36 318.71,-60.78 327.4,-49.47"/>
<polygon fill="#7c3aed" stroke="#7c3aed" points="329.46,-50.81 331.8,-43.78 325.58,-47.82 329.46,-50.81"/>
<text text-anchor="start" x="226.5" y="-182.6" font-family="Times,serif" font-size="8.00">A, Pₑ</text>
</g>
<!-- target -->
<g id="node4" class="node">
<title>target</title>
<path fill="#dbeafe" stroke="#2563eb" stroke-width="1.2" d="M28.5,-0.5C28.5,-0.5 143.5,-0.5 143.5,-0.5 149.5,-0.5 155.5,-6.5 155.5,-12.5 155.5,-12.5 155.5,-55.5 155.5,-55.5 155.5,-61.5 149.5,-67.5 143.5,-67.5 143.5,-67.5 28.5,-67.5 28.5,-67.5 22.5,-67.5 16.5,-61.5 16.5,-55.5 16.5,-55.5 16.5,-12.5 16.5,-12.5 16.5,-6.5 22.5,-0.5 28.5,-0.5"/>
<polygon fill="#2563eb" stroke="transparent" points="27,-44 27,-61 146,-61 146,-44 27,-44"/>
<text text-anchor="start" x="50" y="-51" font-family="system-ui, sans-serif" font-weight="bold" font-size="10.00" fill="white">Target Factory</text>
<text text-anchor="start" x="30" y="-32" font-family="system-ui, sans-serif" font-weight="bold" font-size="10.00">cost_per_target</text>
<text text-anchor="start" x="124" y="-31" font-family="system-ui, sans-serif" font-size="10.00">$10</text>
<text text-anchor="start" x="30" y="-13" font-family="system-ui, sans-serif" font-weight="bold" font-size="10.00">factory_cost</text>
<text text-anchor="start" x="115" y="-12" font-family="system-ui, sans-serif" font-size="10.00">$0.1B</text>
</g>
<!-- target&#45;&gt;calc_lcoe -->
<g id="edge4" class="edge">
<title>target&#45;&gt;calc_lcoe</title>
<path fill="none" stroke="#2563eb" d="M155.6,-49.54C191.17,-60.36 233.43,-77.84 264,-105 288.98,-127.19 279.02,-145 300,-171 302.48,-174.07 305.21,-177.1 308.07,-180.03"/>
<polygon fill="#2563eb" stroke="#2563eb" points="306.62,-182.03 313.33,-185.18 310.05,-178.53 306.62,-182.03"/>
<text text-anchor="start" x="228" y="-107.6" font-family="Times,serif" font-size="8.00">cost</text>
</g>
<!-- calc_meier_cap -->
<g id="node9" class="node">
<title>calc_meier_cap</title>
<path fill="#ede9fe" stroke="#7c3aed" stroke-width="1.2" d="M377,-156.5C377,-156.5 320,-156.5 320,-156.5 314,-156.5 308,-150.5 308,-144.5 308,-144.5 308,-113.5 308,-113.5 308,-107.5 314,-101.5 320,-101.5 320,-101.5 377,-101.5 377,-101.5 383,-101.5 389,-107.5 389,-113.5 389,-113.5 389,-144.5 389,-144.5 389,-150.5 383,-156.5 377,-156.5"/>
<text text-anchor="start" x="320.5" y="-142" font-family="system-ui, sans-serif" font-weight="bold" font-size="10.00">Meier Total</text>
<text text-anchor="start" x="319.5" y="-126" font-family="system-ui, sans-serif" font-weight="bold" font-size="10.00">Capital Cost</text>
<text text-anchor="start" x="339.5" y="-110.6" font-family="system-ui, sans-serif" font-size="8.00">Eq. 2</text>
</g>
<!-- target&#45;&gt;calc_meier_cap -->
<g id="edge13" class="edge">
<title>target&#45;&gt;calc_meier_cap</title>
<path fill="none" stroke="#7c3aed" d="M155.76,-24.36C189.74,-22.52 230.53,-24.83 264,-40 289.82,-51.7 311.46,-75.48 326.23,-95.52"/>
<polygon fill="#7c3aed" stroke="#7c3aed" points="324.33,-97.07 330.41,-101.33 328.31,-94.21 324.33,-97.07"/>
<text text-anchor="start" x="223.5" y="-42.6" font-family="Times,serif" font-size="8.00">$0.1B</text>
</g>
<!-- calc_meier_drv&#45;&gt;driver -->
<g id="edge17" class="edge">
<title>calc_meier_drv&#45;&gt;driver</title>
<path fill="none" stroke="#d97706" stroke-dasharray="5,2" d="M309.41,-454.54C281.26,-458.88 242.07,-465.44 208,-473 195.71,-475.73 182.81,-478.9 170.19,-482.19"/>
<polygon fill="#d97706" stroke="#d97706" points="169.36,-479.87 163.21,-484.02 170.61,-484.61 169.36,-479.87"/>
<text text-anchor="start" x="218" y="-484.6" font-family="Times,serif" font-size="8.00" fill="#d97706">γ derives</text>
<text text-anchor="start" x="208" y="-475.6" font-family="Times,serif" font-size="8.00" fill="#d97706">cost_per_joule</text>
</g>
<!-- calc_meier_drv&#45;&gt;calc_meier_cap -->
<g id="edge10" class="edge">
<title>calc_meier_drv&#45;&gt;calc_meier_cap</title>
<path fill="none" stroke="#7c3aed" d="M313.69,-421.45C308.83,-416.88 304.1,-412 300,-407 270.34,-370.83 259.95,-360.72 248,-315.5 230.56,-249.51 260.8,-226.88 300,-171 302.24,-167.81 304.77,-164.7 307.48,-161.72"/>
<polygon fill="#7c3aed" stroke="#7c3aed" points="309.42,-163.24 312.51,-156.5 305.89,-159.84 309.42,-163.24"/>
<text text-anchor="start" x="230" y="-309.1" font-family="Times,serif" font-size="8.00">$B</text>
</g>
<!-- out_lcoe -->
<g id="node11" class="node">
<title>out_lcoe</title>
<path fill="#d1fae5" stroke="#059669" stroke-width="2" d="M528.5,-232C528.5,-232 498.5,-232 498.5,-232 492.5,-232 486.5,-226 486.5,-220 486.5,-220 486.5,-204 486.5,-204 486.5,-198 492.5,-192 498.5,-192 498.5,-192 528.5,-192 528.5,-192 534.5,-192 540.5,-198 540.5,-204 540.5,-204 540.5,-220 540.5,-220 540.5,-226 534.5,-232 528.5,-232"/>
<text text-anchor="start" x="501.5" y="-218" font-family="system-ui, sans-serif" font-weight="bold" font-size="10.00">LCOE</text>
<text text-anchor="start" x="498.5" y="-201.8" font-family="system-ui, sans-serif" font-size="9.00">$/MWh</text>
</g>
<!-- calc_lcoe&#45;&gt;out_lcoe -->
<g id="edge5" class="edge">
<title>calc_lcoe&#45;&gt;out_lcoe</title>
<path fill="none" stroke="#059669" stroke-width="1.5" d="M392.33,-212C419.45,-212 454.03,-212 479.12,-212"/>
<polygon fill="#059669" stroke="#059669" stroke-width="1.5" points="479.25,-214.45 486.25,-212 479.25,-209.55 479.25,-214.45"/>
</g>
<!-- out_recirc -->
<g id="node12" class="node">
<title>out_recirc</title>
<path fill="#d1fae5" stroke="#059669" stroke-width="1.2" d="M545,-392.5C545,-392.5 482,-392.5 482,-392.5 476,-392.5 470,-386.5 470,-380.5 470,-380.5 470,-363.5 470,-363.5 470,-357.5 476,-351.5 482,-351.5 482,-351.5 545,-351.5 545,-351.5 551,-351.5 557,-357.5 557,-363.5 557,-363.5 557,-380.5 557,-380.5 557,-386.5 551,-392.5 545,-392.5"/>
<text text-anchor="start" x="481.5" y="-378" font-family="system-ui, sans-serif" font-weight="bold" font-size="10.00">recirculating</text>
<text text-anchor="start" x="494" y="-362" font-family="system-ui, sans-serif" font-weight="bold" font-size="10.00">fraction</text>
</g>
<!-- calc_recirc&#45;&gt;out_recirc -->
<g id="edge8" class="edge">
<title>calc_recirc&#45;&gt;out_recirc</title>
<path fill="none" stroke="#059669" stroke-width="1.5" d="M397.08,-372C417.68,-372 441.79,-372 462.63,-372"/>
<polygon fill="#059669" stroke="#059669" stroke-width="1.5" points="462.86,-374.45 469.86,-372 462.86,-369.55 462.86,-374.45"/>
</g>
<!-- calc_meier_rx&#45;&gt;calc_meier_cap -->
<g id="edge12" class="edge">
<title>calc_meier_rx&#45;&gt;calc_meier_cap</title>
<path fill="none" stroke="#7c3aed" d="M305.26,-276.53C270.53,-258.79 230.25,-229.81 248,-196.5 259.51,-174.9 281.35,-158.98 301.73,-148.05"/>
<polygon fill="#7c3aed" stroke="#7c3aed" points="302.9,-150.2 308,-144.82 300.65,-145.85 302.9,-150.2"/>
<text text-anchor="start" x="230" y="-199.1" font-family="Times,serif" font-size="8.00">$B</text>
</g>
<!-- calc_meier_cap&#45;&gt;calc_meier_coe -->
<g id="edge14" class="edge">
<title>calc_meier_cap&#45;&gt;calc_meier_coe</title>
<path fill="none" stroke="#7c3aed" d="M348.5,-101.34C348.5,-84.52 348.5,-67.71 348.5,-50.89"/>
<polygon fill="#7c3aed" stroke="#7c3aed" points="350.95,-50.69 348.5,-43.69 346.05,-50.69 350.95,-50.69"/>
</g>
<!-- out_meier_coe -->
<g id="node13" class="node">
<title>out_meier_coe</title>
<path fill="#d1fae5" stroke="#059669" stroke-width="1.2" d="M543,-44C543,-44 484,-44 484,-44 478,-44 472,-38 472,-32 472,-32 472,-16 472,-16 472,-10 478,-4 484,-4 484,-4 543,-4 543,-4 549,-4 555,-10 555,-16 555,-16 555,-32 555,-32 555,-38 549,-44 543,-44"/>
<text text-anchor="start" x="488" y="-30" font-family="system-ui, sans-serif" font-weight="bold" font-size="10.00">Meier COE</text>
<text text-anchor="start" x="483.5" y="-13.8" font-family="system-ui, sans-serif" font-size="9.00">¢/kWh (1988$)</text>
</g>
<!-- calc_meier_coe&#45;&gt;out_meier_coe -->
<g id="edge16" class="edge">
<title>calc_meier_coe&#45;&gt;out_meier_coe</title>
<path fill="none" stroke="#059669" stroke-width="1.5" d="M385.67,-24C408.89,-24 439.31,-24 464.53,-24"/>
<polygon fill="#059669" stroke="#059669" stroke-width="1.5" points="464.84,-26.45 471.84,-24 464.84,-21.55 464.84,-26.45"/>
</g>
</g>
</svg>
